<svg xmlns="http://www.w3.org/2000/svg" enable-background="new 0 0 512 512" viewBox="0 0 512 512"><path d="M446,347.4c-0.1-0.6-0.2-1.2-0.5-1.7c-1.2-2.2-3.7-3.1-5.9-2.5c-1.9,0.6-4.3,1.1-7,1.5c5.7-32.6,8.7-69.5-3.7-105.1c5.2-0.6,9.6-1.7,13-3.3c1.7-0.8,2.9-2.3,3.1-4.1c5.1-33.8-2.6-64-22.8-90c-16.9-21.7-42.8-40.2-75-53.3C315,75.7,277,68.1,243.1,68c-0.1,0-0.3,0-0.4,0c-33.9,0-58.8,7.5-68.3,20.6c-0.1,0.1-0.1,0.2-0.2,0.3c0,0-0.1,0.1-0.1,0.1c-4,5.7-24.3,15.5-35.2,20.7c-4.5,2.2-8,3.9-10.2,5.1c0,0-0.1,0-0.1,0.1c-3.2,1.8-6.3,3.6-9.1,5.5c-13.8,8.9-31.9,35.3-36.7,46.5c-1.5,2.7-12.1,22.6-16,55.6c-3.8,31.9-1.7,82.7,29.7,143.4c1.2,2.3,3.9,3.3,6.3,2.3c9.1-3.7,47.9-8.9,103.5-0.3c46.8,7.2,117.9,26.2,190.9,76.1c0.9,0.6,1.8,0.9,2.8,0.9c1.1,0,2.2-0.4,3.1-1C405.1,442.2,453,404.3,446,347.4z M422.2,345.3c-38.8,2.1-117.3-10.2-180.3-61.1c-0.3-0.3-0.6-0.6-0.9-0.9c-1.4-1.6-2.9-3.2-4.4-4.8c-14.6-17.2-16.7-36.2-5.3-52c11.5-16,36.7-26.1,60.5-13.4c20.6,12.6,82.9,26.8,122.6,26.8c1.4,0,2.7,0,4-0.1C431.6,275.1,428.1,312.5,422.2,345.3z M179.8,97.3c40.7,15.5,53.5,26,55.6,29.5c-1.8,0.9-8.9,3.2-31.7,0.9c-16.1-1.6-36.4-5.2-58.1-10.3C160.1,110.3,173.4,103.5,179.8,97.3z M91.5,171.6c0.1-0.2,0.2-0.4,0.3-0.6c4-9.5,21.1-34.5,33-42.3c2.1-1.4,4.4-2.7,6.7-4.1c27.2,6.8,52.8,11.5,72.3,13.5c6.9,0.7,12.6,1,17.3,1c15.8,0,20.6-3.3,22.8-6.4c0,0,0,0,0,0c1.6-2.3,2-5,1.2-7.8c-3.5-11.4-32-24.9-58-35c10.3-7.4,30.5-11.8,55.4-11.8c0.1,0,0.3,0,0.4,0c32.7,0.1,69.3,7.4,100.4,20.1c38.8,15.9,101.9,53.8,92,130c-2.8,0.9-6.3,1.5-10.3,1.9c0-0.1-0.1-0.1-0.1-0.2l-0.6,0.3c-33.8,2.8-105.1-11.4-127.5-25.2c-0.1,0-0.2-0.1-0.2-0.1c-28.9-15.5-59.5-3.1-73.5,16.3c-7.2,9.9-11.3,23.4-8,38.1c-37.7-31.2-92-60.6-135.3-54.7C84.7,183.7,91.4,171.8,91.5,171.6z M399.6,433.1c-96.3-64.7-193.8-80.3-251.8-80.3c-20.2,0-35.6,1.9-44.4,4.3c-28.3-56.5-30.2-103.5-26.8-133.3c0.4-3.2,0.8-6.3,1.3-9.2c47.2-9,115.3,33.3,151.3,70.6c1.4,1.6,2.9,3.3,4.6,4.9c0.4,0.4,0.8,0.9,1.1,1.3c0.4,0.5,1,0.9,1.6,1.2c60.7,48.7,133.7,62.9,176.7,62.9c9.3,0,17.2-0.7,23.3-1.8C438.8,394.7,408.9,424.8,399.6,433.1z"/><path d="M263.7 229.6c-10.5 0-19 8.5-19 19s8.5 19 19 19 19-8.5 19-19S274.1 229.6 263.7 229.6zM263.7 257.6c-5 0-9-4-9-9s4-9 9-9 9 4 9 9S268.6 257.6 263.7 257.6zM149.8 290c-2.1-1.8-5.2-1.7-7.1.4L113 323.7c-1.8 2.1-1.7 5.2.4 7.1 1 .9 2.1 1.3 3.3 1.3 1.4 0 2.7-.6 3.7-1.7l29.8-33.4C152.1 295 151.9 291.8 149.8 290zM180.8 290c-2.1-1.8-5.2-1.7-7.1.4l-29.8 33.4c-1.8 2.1-1.7 5.2.4 7.1 1 .9 2.1 1.3 3.3 1.3 1.4 0 2.7-.6 3.7-1.7l29.8-33.4C183 295 182.8 291.8 180.8 290zM204.7 290.4l-29.8 33.4c-1.8 2.1-1.7 5.2.4 7.1 1 .9 2.1 1.3 3.3 1.3 1.4 0 2.7-.6 3.7-1.7l29.8-33.4c1.8-2.1 1.7-5.2-.4-7.1C209.6 288.1 206.5 288.3 204.7 290.4z"/></svg>