<svg xmlns="http://www.w3.org/2000/svg" width="32" height="32" viewBox="0 0 8.467 8.467"><path fill-rule="evenodd" d="M 8.0019531,1.0039062 C 6.3572501,1.0039062 4.9980469,2.3553008 4.9980469,4 v 24 c 0,1.644699 1.3592259,3.003906 3.0039062,3.003906 H 23.998047 c 1.64468,0 3.005859,-1.359207 3.005859,-3.003906 V 4 c 0,-1.6446992 -1.361156,-2.9960938 -3.005859,-2.9960938 z m 0,1.9921876 H 23.998047 c 0.571283,0 1.003906,0.4326306 1.003906,1.0039062 V 5 H 6.9980469 V 4 c 0,-0.5712756 0.4326231,-1.0039062 1.0039062,-1.0039062 z M 6.9980469,7 H 25.001953 V 25 H 22 c -1.352313,-0.01912 -1.352313,2.019116 0,2 h 3.001953 v 1 c 0,0.571313 -0.4326,1.003906 -1.003906,1.003906 H 8.0019531 C 7.4306473,29.003906 6.9980469,28.571313 6.9980469,28 V 27 H 18 c 1.352313,0.01912 1.352313,-2.019116 0,-2 H 6.9980469 Z" color="#000" font-family="sans-serif" font-weight="400" overflow="visible" paint-order="stroke fill markers" transform="scale(.26458)" style="line-height:normal;font-variant-ligatures:normal;font-variant-position:normal;font-variant-caps:normal;font-variant-numeric:normal;font-variant-alternates:normal;font-feature-settings:normal;text-indent:0;text-align:start;text-decoration-line:none;text-decoration-style:solid;text-decoration-color:#000;text-transform:none;text-orientation:mixed;shape-padding:0;isolation:auto;mix-blend-mode:normal"/></svg>